<svg width="9" height="12" viewBox="0 0 9 12" fill="none" xmlns="http://www.w3.org/2000/svg">
<path id="Vector" d="M0.929149 10.293C0.746991 10.4816 0.646197 10.7342 0.648475 10.9964C0.650754 11.2586 0.755923 11.5095 0.941331 11.6949C1.12674 11.8803 1.37755 11.9854 1.63975 11.9877C1.90194 11.99 2.15455 11.8892 2.34315 11.707L8.05015 6.00004L2.34315 0.293041C2.15455 0.110883 1.90194 0.0100885 1.63975 0.0123669C1.37755 0.0146453 1.12674 0.119814 0.941331 0.305222C0.755923 0.49063 0.650754 0.741443 0.648475 1.00364C0.646197 1.26584 0.746991 1.51844 0.929149 1.70704L5.22215 6.00004L0.929149 10.293Z" fill="#8490B5"/>
</svg>
